<svg width="30" height="30" viewBox="0 0 30 30" fill="none" xmlns="http://www.w3.org/2000/svg">
<g clip-path="url(#clip0_58_145)">
<path d="M29.6088 10.614C29.5876 10.5412 29.5531 10.472 29.5046 10.4109L27.7967 8.26169C27.5935 8.0061 27.2217 7.96339 26.966 8.16665C26.7104 8.36979 26.6678 8.74174 26.8709 8.99739L28.0504 10.4816L23.7727 11.8846L15.5954 5.94343L15.6082 1.43447L23.0019 4.12861L24.5818 6.11675C24.785 6.37233 25.1568 6.41499 25.4125 6.21179C25.6681 6.00864 25.7107 5.63669 25.5076 5.38105L23.824 3.26236C23.7562 3.17699 23.666 3.11207 23.5635 3.07468L15.2218 0.035139C15.1499 0.00894767 15.0748 -0.00212653 15.0005 0.000334402C14.9261 -0.00206794 14.851 0.00894767 14.7791 0.035139L6.43671 3.07468C6.33429 3.11201 6.24411 3.17693 6.17626 3.26236L0.49625 10.4104C0.449258 10.4695 0.415215 10.5362 0.393829 10.6064C0.367872 10.6755 0.354161 10.7494 0.355567 10.8251L0.51459 19.4867C0.516641 19.5994 0.550918 19.7092 0.613262 19.803L5.81022 27.6257C5.85312 27.6903 5.9079 27.7442 5.97024 27.7867C6.03569 27.8376 6.1114 27.8758 6.19442 27.8958L14.8608 29.9835C14.9063 29.9945 14.9528 29.9999 14.9992 29.9999C15.0457 29.9999 15.0922 29.9944 15.1377 29.9835L23.804 27.8958C23.8835 27.8767 23.9562 27.841 24.0197 27.7933C24.086 27.75 24.1443 27.6941 24.1893 27.6262L29.3863 19.8036C29.4487 19.7098 29.4829 19.6 29.485 19.4873L29.644 10.8257C29.6455 10.7526 29.633 10.681 29.6088 10.614ZM14.9992 6.98493L22.9705 12.7761L19.9263 22.1472H10.0728L7.02792 12.7761L14.9992 6.98493ZM6.99827 4.12861L14.3926 1.43453L14.4048 5.9429L6.22759 11.8842L1.95037 10.4812L6.99827 4.12861ZM1.69367 19.2925L1.55299 11.6305L5.85921 13.0163L8.98272 22.6295L6.32585 26.265L1.69367 19.2925ZM14.9992 28.8006L7.32833 26.9527L9.94547 23.3297H20.0535L22.6702 26.9527L14.9992 28.8006ZM28.306 19.2931L23.6738 26.2656L21.0169 22.6301L24.1404 13.0174L28.4467 11.6313L28.306 19.2931Z" fill="#C6C6C6"/>
<path d="M16.5418 15.4343C17.0104 15.0125 17.3056 14.4018 17.3056 13.7232C17.3056 12.4537 16.2728 11.421 15.0034 11.421C13.7339 11.421 12.7012 12.4538 12.7012 13.7232C12.7012 14.4018 12.9964 15.0125 13.4649 15.4343C12.9964 15.856 12.7012 16.4668 12.7012 17.1453C12.7012 18.4145 13.7339 19.4471 15.0034 19.4471C16.2728 19.4471 17.3056 18.4145 17.3056 17.1453C17.3056 16.4668 17.0103 15.856 16.5418 15.4343ZM15.0033 12.6035C15.6207 12.6035 16.1231 13.1058 16.1231 13.7232C16.1231 14.3406 15.6207 14.843 15.0033 14.843C14.3859 14.843 13.8835 14.3406 13.8835 13.7232C13.8835 13.1058 14.3859 12.6035 15.0033 12.6035ZM15.0033 18.2646C14.3859 18.2646 13.8836 17.7625 13.8836 17.1453C13.8836 16.5279 14.3859 16.0256 15.0033 16.0256C15.6207 16.0256 16.1231 16.5279 16.1231 17.1453C16.1232 17.7624 15.6208 18.2646 15.0033 18.2646Z" fill="#C6C6C6"/>
<path d="M14.5807 26.0358C14.2809 26.0358 14.0333 26.2588 13.9947 26.5479C13.9216 26.605 13.7037 26.7074 13.3573 26.7074C13.0582 26.7074 12.855 26.631 12.758 26.5734C12.9611 26.2235 13.9075 25.4835 14.8732 24.933C15.1063 24.8003 15.2208 24.5273 15.1522 24.2679C15.0836 24.0085 14.849 23.828 14.5807 23.828H12.1342C11.8077 23.828 11.543 24.0928 11.543 24.4192C11.543 24.7457 11.8077 25.0105 12.1342 25.0105H12.657C11.8898 25.6299 11.543 26.1371 11.543 26.6269C11.543 27.3469 12.323 27.8898 13.3574 27.8898C14.3919 27.8898 15.172 27.3468 15.172 26.6269C15.1719 26.3005 14.9071 26.0358 14.5807 26.0358Z" fill="#C6C6C6"/>
<path d="M22.9809 5.92315C22.8428 5.63721 22.6007 5.36141 22.2985 5.14597C21.5503 4.61446 20.699 4.61587 20.3184 5.14913C20.1287 5.41491 20.1903 5.78411 20.4562 5.97378C20.6873 6.13877 20.9968 6.11346 21.1982 5.92936C21.2785 5.93756 21.4357 5.98344 21.613 6.10942C21.734 6.19561 21.8165 6.28508 21.8676 6.35645C21.4893 6.46039 20.6 6.48623 19.7914 6.40485C19.5245 6.37789 19.2729 6.53393 19.1785 6.78494C19.0841 7.03596 19.1705 7.31914 19.389 7.47477L21.0515 8.65847C21.1556 8.73248 21.2753 8.7681 21.3939 8.7681C21.5787 8.7681 21.7607 8.68173 21.8761 8.51972C22.0655 8.25371 22.0033 7.88457 21.7373 7.69519L21.5998 7.59728C22.2924 7.52357 22.7167 7.33824 22.9434 7.01973C23.1583 6.71838 23.172 6.31877 22.9809 5.92315Z" fill="#C6C6C6"/>
<path d="M6.29839 16.3735L6.09677 15.8148C6.09671 15.8146 6.09665 15.8144 6.09659 15.8143C5.82654 15.0681 4.99966 14.6799 4.25306 14.9492L3.31387 15.2884C2.95193 15.4189 2.66254 15.6826 2.49906 16.031C2.33564 16.3791 2.31754 16.77 2.44809 17.1319L2.64971 17.6908C2.78031 18.0525 3.04398 18.3417 3.39226 18.5051C3.58679 18.5964 3.79463 18.6423 4.0031 18.6423C4.16816 18.6424 4.33375 18.6136 4.49341 18.5558L5.43255 18.2165C5.79443 18.0861 6.08388 17.8224 6.24736 17.4741C6.41095 17.1258 6.42894 16.7349 6.29839 16.3735ZM5.17708 16.9714C5.16015 17.0075 5.11878 17.0726 5.03124 17.1041L4.0914 17.4436C4.00433 17.4752 3.9308 17.4515 3.8947 17.4347C3.85867 17.4177 3.79345 17.3763 3.76205 17.2894L3.56054 16.7307C3.52896 16.6432 3.55269 16.5695 3.56957 16.5334C3.5865 16.4974 3.62787 16.4323 3.71541 16.4007L4.65461 16.0615C4.68332 16.0511 4.71273 16.0462 4.74168 16.0462C4.8472 16.0462 4.94664 16.1116 4.98466 16.2166L5.18623 16.7751C5.21763 16.862 5.19396 16.9355 5.17708 16.9714Z" fill="#C6C6C6"/>
<path d="M19.8523 25.5601C19.6873 25.2783 19.325 25.1834 19.0433 25.3487L17.4862 26.2607V24.4258C17.4862 24.0993 17.2214 23.8346 16.8949 23.8346C16.5684 23.8346 16.3037 24.0993 16.3037 24.4258V27.2921C16.3037 27.504 16.4171 27.6997 16.601 27.8051C16.692 27.8573 16.7935 27.8834 16.895 27.8834C16.9983 27.8834 17.1015 27.8563 17.1938 27.8023L19.641 26.3692C19.9227 26.2041 20.0173 25.8418 19.8523 25.5601Z" fill="#C6C6C6"/>
<path d="M7.31704 19.212C7.20624 18.9049 6.86739 18.7459 6.56018 18.8566L4.03503 19.7684C3.83575 19.8403 3.69015 20.0134 3.65347 20.2221C3.61679 20.4308 3.6946 20.6432 3.85749 20.7788L5.89843 22.478C6.00893 22.57 6.14305 22.6149 6.27641 22.6149C6.44587 22.6149 6.61415 22.5424 6.73104 22.4019C6.93999 22.151 6.90594 21.7782 6.65499 21.5692L5.40694 20.5302L6.96172 19.9689C7.26887 19.858 7.42795 19.5192 7.31704 19.212Z" fill="#C6C6C6"/>
<path d="M11.072 6.78016L10.1728 5.67895C10.1721 5.67807 10.1715 5.67708 10.1707 5.6762C10.17 5.67532 10.1692 5.67456 10.1685 5.67368L9.26981 4.573C9.06327 4.31999 8.69067 4.28249 8.43796 4.48903C8.18501 4.69558 8.14751 5.06806 8.354 5.32089L8.88099 5.96635L7.91308 6.75684L7.38545 6.1112C7.17879 5.85837 6.80636 5.82098 6.55353 6.02753C6.3007 6.23419 6.26326 6.60667 6.46986 6.85944L7.3715 7.9627C7.48839 8.10573 7.65832 8.17979 7.82964 8.17979C7.96113 8.17979 8.09349 8.13614 8.20324 8.04649L9.62882 6.88223L10.156 7.52787C10.2729 7.67108 10.4429 7.74526 10.6144 7.74526C10.7458 7.74526 10.8781 7.70166 10.9878 7.61207C11.2407 7.40553 11.2784 7.03311 11.072 6.78016Z" fill="#C6C6C6"/>
<path d="M26.4634 17.6623C26.1574 17.547 25.8167 17.7018 25.7018 18.0073L25.3659 18.8997L24.3182 17.0054C24.1602 16.7196 23.8006 16.6163 23.5147 16.7741C23.2289 16.9321 23.1254 17.2919 23.2835 17.5777L24.9508 20.5923C25.0554 20.7814 25.2541 20.8974 25.468 20.8974C25.4823 20.8974 25.4965 20.8969 25.5111 20.8959C25.741 20.8791 25.9403 20.7303 26.0215 20.5146L26.8085 18.424C26.9234 18.1183 26.7689 17.7772 26.4634 17.6623Z" fill="#C6C6C6"/>
<path d="M26.1746 6.56277C25.4138 6.56277 25.4125 7.74525 26.1746 7.74525C26.9355 7.74525 26.9367 6.56277 26.1746 6.56277Z" fill="#C6C6C6"/>
</g>
<defs>
<clipPath id="clip0_58_145">
<rect width="30" height="30" fill="white"/>
</clipPath>
</defs>
</svg>
