<svg width="20" height="20" viewBox="0 0 20 20" fill="none" xmlns="http://www.w3.org/2000/svg">
<g clip-path="url(#clip0_50_73)">
<path d="M8.3125 0H10.6875V9.5H8.3125V0Z" fill="#C6C6C6"/>
<path d="M11.875 2.7251V5.25332C13.9682 6.17215 15.4375 8.25905 15.4375 10.6875C15.4375 13.9613 12.7737 16.625 9.50001 16.625C6.22628 16.625 3.56252 13.9613 3.56252 10.6875C3.56252 8.25901 5.03183 6.17211 7.12503 5.25332V2.7251C3.69578 3.7501 1.1875 6.92996 1.1875 10.6875C1.1875 15.2705 4.9164 19 9.50001 19C14.0836 19 17.8125 15.2705 17.8125 10.6875C17.8125 6.92996 15.3042 3.7501 11.875 2.7251Z" fill="#C6C6C6"/>
</g>
<defs>
<clipPath id="clip0_50_73">
<rect width="20" height="20" fill="white"/>
</clipPath>
</defs>
</svg>
